<svg xmlns="http://www.w3.org/2000/svg" xmlns:xlink="http://www.w3.org/1999/xlink" preserveAspectRatio="xMidYMid" width="30" height="30" viewBox="0 0 30 30">
  <defs>
    <style>
      .cls-1 {
        fill: #fff;
        fill-rule: evenodd;
      }
    </style>
  </defs>
  <path d="M15.469,6.000 L18.000,6.000 L18.000,-0.000 L21.000,-0.000 L21.000,6.000 L23.531,6.000 L19.500,10.031 L15.469,6.000 ZM28.000,22.000 L12.000,22.000 L10.000,11.000 L30.000,11.000 L28.000,22.000 ZM26.000,13.000 L14.000,13.000 L14.000,14.000 L26.000,14.000 L26.000,13.000 ZM26.000,16.000 L14.000,16.000 L14.000,17.000 L26.000,17.000 L26.000,16.000 ZM26.000,19.000 L14.000,19.000 L14.000,20.000 L26.000,20.000 L26.000,19.000 ZM28.000,23.000 L28.000,25.000 L10.445,25.000 L9.903,25.122 L6.573,12.000 L0.000,12.000 L0.000,10.000 L7.555,10.000 L8.097,9.878 L11.427,23.000 L28.000,23.000 ZM12.000,26.000 C13.105,26.000 14.000,26.895 14.000,28.000 C14.000,29.105 13.105,30.000 12.000,30.000 C10.895,30.000 10.000,29.105 10.000,28.000 C10.000,26.895 10.895,26.000 12.000,26.000 ZM25.000,26.000 C26.105,26.000 27.000,26.895 27.000,28.000 C27.000,29.105 26.105,30.000 25.000,30.000 C23.895,30.000 23.000,29.105 23.000,28.000 C23.000,26.895 23.895,26.000 25.000,26.000 Z" class="cls-1"/>
</svg>
