<svg xmlns="http://www.w3.org/2000/svg" xmlns:xlink="http://www.w3.org/1999/xlink" preserveAspectRatio="xMidYMid" width="29" height="30" viewBox="0 0 29 30">
  <defs>
    <style>
      .cls-1, .cls-2 {
        fill: #fff;
        fill-rule: evenodd;
      }

      .cls-2 {
        fill-opacity: 0.77;
      }
    </style>
  </defs>
  <g>
    <path d="M9.000,25.000 L6.000,12.000 L0.000,12.000 L0.000,10.000 L7.000,10.000 L10.000,23.000 L27.000,23.000 L27.000,25.000 L9.000,25.000 ZM14.469,5.999 L17.000,5.999 L17.000,-0.001 L20.000,-0.001 L20.000,5.999 L22.531,5.999 L18.500,10.031 L14.469,5.999 ZM11.000,26.000 C12.105,26.000 13.000,26.895 13.000,28.000 C13.000,29.105 12.105,30.000 11.000,30.000 C9.895,30.000 9.000,29.105 9.000,28.000 C9.000,26.895 9.895,26.000 11.000,26.000 ZM24.000,26.000 C25.105,26.000 26.000,26.895 26.000,28.000 C26.000,29.105 25.105,30.000 24.000,30.000 C22.895,30.000 22.000,29.105 22.000,28.000 C22.000,26.895 22.895,26.000 24.000,26.000 Z" class="cls-1"/>
    <path d="M27.000,22.000 L11.000,22.000 L9.000,11.000 L29.000,11.000 L27.000,22.000 ZM25.000,13.000 L25.000,13.000 L25.000,12.999 L13.000,12.999 L13.000,14.000 L13.000,14.000 L13.000,14.000 L25.000,14.000 L25.000,13.000 ZM25.000,16.000 L13.000,16.000 L13.000,17.000 L25.000,17.000 L25.000,16.000 ZM25.000,19.000 L25.000,19.000 L25.000,18.999 L13.000,18.999 L13.000,20.000 L13.000,20.000 L13.000,20.000 L25.000,20.000 L25.000,19.000 Z" class="cls-2"/>
  </g>
</svg>
