<svg xmlns="http://www.w3.org/2000/svg" xmlns:xlink="http://www.w3.org/1999/xlink" preserveAspectRatio="xMidYMid" width="24" height="24" viewBox="0 0 24 24">
  <defs>
    <style>
      .cls-1 {
        fill: #fff;
        fill-rule: evenodd;
      }
    </style>
  </defs>
  <path d="M23.000,24.000 L1.000,24.000 C0.448,24.000 -0.000,23.552 -0.000,23.000 L-0.000,1.000 C-0.000,0.448 0.448,-0.000 1.000,-0.000 L23.000,-0.000 C23.552,-0.000 24.000,0.448 24.000,1.000 L24.000,23.000 C24.000,23.552 23.552,24.000 23.000,24.000 ZM20.000,4.000 L15.000,4.000 L15.000,2.000 L13.000,2.000 L13.000,4.000 L4.000,4.000 L4.000,6.000 L13.000,6.000 L13.000,8.000 L15.000,8.000 L15.000,6.000 L20.000,6.000 L20.000,4.000 ZM20.000,11.000 L11.000,11.000 L11.000,9.000 L9.000,9.000 L9.000,11.000 L4.000,11.000 L4.000,13.000 L9.000,13.000 L9.000,15.000 L11.000,15.000 L11.000,13.000 L20.000,13.000 L20.000,11.000 ZM20.000,18.000 L14.000,18.000 L14.000,16.000 L12.000,16.000 L12.000,18.000 L4.000,18.000 L4.000,20.000 L12.000,20.000 L12.000,22.000 L14.000,22.000 L14.000,20.000 L20.000,20.000 L20.000,18.000 Z" class="cls-1"/>
</svg>
