<svg xmlns="http://www.w3.org/2000/svg" xmlns:xlink="http://www.w3.org/1999/xlink" preserveAspectRatio="xMidYMid" width="13" height="15.094" viewBox="0 0 13 15.094">
  <defs>
    <style>
      .cls-1 {
        fill: #ff2929;
        fill-rule: evenodd;
      }
    </style>
  </defs>
  <path d="M13.000,5.094 L13.000,8.094 L-0.000,8.094 L-0.000,5.094 L5.000,5.094 C5.000,5.094 5.252,4.575 5.573,4.066 L1.000,3.094 C1.000,3.094 1.192,2.079 1.679,1.327 C2.192,0.534 3.000,-0.000 3.000,-0.000 L5.660,3.935 C5.951,3.494 6.280,3.094 6.531,3.094 C6.776,3.094 7.083,3.475 7.355,3.902 L9.999,0.033 C9.999,0.033 10.739,0.645 11.248,1.428 C11.736,2.177 11.995,3.097 11.995,3.097 L7.427,4.016 C7.747,4.541 8.000,5.094 8.000,5.094 L13.000,5.094 ZM12.000,15.094 L1.000,15.094 L1.000,9.094 L12.000,9.094 L12.000,15.094 Z" class="cls-1"/>
</svg>
