<?xml version="1.0" encoding="utf-8"?>
<!-- Generator: Avocode 2.4.3-3630f5a - http://avocode.com -->
<svg height="10" width="10" xmlns:xlink="http://www.w3.org/1999/xlink" xmlns="http://www.w3.org/2000/svg" viewBox="0 0 10 10">
    <path fill="#ffffff" fill-rule="evenodd" d="M 9.5 6 C 9.5 6 6 6 6 6 C 6 6 6 9.5 6 9.5 C 6 9.78 5.78 10 5.5 10 C 5.5 10 4.5 10 4.5 10 C 4.22 10 4 9.78 4 9.5 C 4 9.5 4 6 4 6 C 4 6 0.5 6 0.5 6 C 0.22 6 0 5.78 0 5.5 C 0 5.5 0 4.5 0 4.5 C 0 4.22 0.22 4 0.5 4 C 0.5 4 4 4 4 4 C 4 4 4 0.5 4 0.5 C 4 0.22 4.22 0 4.5 0 C 4.5 0 5.5 0 5.5 0 C 5.78 0 6 0.22 6 0.5 C 6 0.5 6 4 6 4 C 6 4 9.5 4 9.5 4 C 9.78 4 10 4.22 10 4.5 C 10 4.5 10 5.5 10 5.5 C 10 5.78 9.78 6 9.5 6 Z" />
</svg>