<svg xmlns="http://www.w3.org/2000/svg" xmlns:xlink="http://www.w3.org/1999/xlink" preserveAspectRatio="xMidYMid" width="10" height="10" viewBox="0 0 10 10">
  <defs>
    <style>
      .cls-1 {
        fill: #fff;
        fill-rule: evenodd;
      }
    </style>
  </defs>
  <path d="M9.500,6.000 L6.000,6.000 L6.000,9.500 C6.000,9.776 5.776,10.000 5.500,10.000 L4.500,10.000 C4.224,10.000 4.000,9.776 4.000,9.500 L4.000,6.000 L0.500,6.000 C0.224,6.000 -0.000,5.776 -0.000,5.500 L-0.000,4.499 C-0.000,4.223 0.224,3.999 0.500,3.999 L4.000,3.999 L4.000,0.500 C4.000,0.223 4.224,-0.000 4.500,-0.000 L5.500,-0.000 C5.776,-0.000 6.000,0.223 6.000,0.500 L6.000,3.999 L9.500,3.999 C9.776,3.999 10.000,4.223 10.000,4.499 L10.000,5.500 C10.000,5.776 9.776,6.000 9.500,6.000 Z" class="cls-1"/>
</svg>
