<svg xmlns="http://www.w3.org/2000/svg" xmlns:xlink="http://www.w3.org/1999/xlink" preserveAspectRatio="xMidYMid" width="25" height="49" viewBox="0 0 25 49">
  <defs>
    <style>
      .cls-1 {
        fill: #fff;
        fill-rule: evenodd;
      }
    </style>
  </defs>
  <path d="M2.000,26.000 L1.000,26.000 L1.000,25.000 L2.000,25.000 L2.000,26.000 ZM3.000,27.000 L2.000,27.000 L2.000,26.000 L3.000,26.000 L3.000,27.000 ZM4.000,28.000 L3.000,28.000 L3.000,27.000 L4.000,27.000 L4.000,28.000 ZM5.000,29.000 L4.000,29.000 L4.000,28.000 L5.000,28.000 L5.000,29.000 ZM6.000,30.000 L5.000,30.000 L5.000,29.000 L6.000,29.000 L6.000,30.000 ZM7.000,31.000 L6.000,31.000 L6.000,30.000 L7.000,30.000 L7.000,31.000 ZM8.000,32.000 L7.000,32.000 L7.000,31.000 L8.000,31.000 L8.000,32.000 ZM9.000,33.000 L8.000,33.000 L8.000,32.000 L9.000,32.000 L9.000,33.000 ZM10.000,34.000 L9.000,34.000 L9.000,33.000 L10.000,33.000 L10.000,34.000 ZM11.000,35.000 L10.000,35.000 L10.000,34.000 L11.000,34.000 L11.000,35.000 ZM12.000,36.000 L11.000,36.000 L11.000,35.000 L12.000,35.000 L12.000,36.000 ZM13.000,37.000 L12.000,37.000 L12.000,36.000 L13.000,36.000 L13.000,37.000 ZM14.000,38.000 L13.000,38.000 L13.000,37.000 L14.000,37.000 L14.000,38.000 ZM15.000,39.000 L14.000,39.000 L14.000,38.000 L15.000,38.000 L15.000,39.000 ZM16.000,40.000 L15.000,40.000 L15.000,39.000 L16.000,39.000 L16.000,40.000 ZM17.000,41.000 L16.000,41.000 L16.000,40.000 L17.000,40.000 L17.000,41.000 ZM18.000,42.000 L17.000,42.000 L17.000,41.000 L18.000,41.000 L18.000,42.000 ZM19.000,43.000 L18.000,43.000 L18.000,42.000 L19.000,42.000 L19.000,43.000 ZM20.000,44.000 L19.000,44.000 L19.000,43.000 L20.000,43.000 L20.000,44.000 ZM21.000,45.000 L20.000,45.000 L20.000,44.000 L21.000,44.000 L21.000,45.000 ZM22.000,46.000 L21.000,46.000 L21.000,45.000 L22.000,45.000 L22.000,46.000 ZM23.000,47.000 L22.000,47.000 L22.000,46.000 L23.000,46.000 L23.000,47.000 ZM24.000,48.000 L23.000,48.000 L23.000,47.000 L24.000,47.000 L24.000,48.000 ZM25.000,49.000 L24.000,49.000 L24.000,48.000 L25.000,48.000 L25.000,49.000 ZM-0.000,25.000 L-0.000,24.000 L1.000,24.000 L1.000,25.000 L-0.000,25.000 ZM2.000,23.000 L2.000,24.000 L1.000,24.000 L1.000,23.000 L2.000,23.000 ZM3.000,22.000 L3.000,23.000 L2.000,23.000 L2.000,22.000 L3.000,22.000 ZM4.000,21.000 L4.000,22.000 L3.000,22.000 L3.000,21.000 L4.000,21.000 ZM5.000,20.000 L5.000,21.000 L4.000,21.000 L4.000,20.000 L5.000,20.000 ZM6.000,19.000 L6.000,20.000 L5.000,20.000 L5.000,19.000 L6.000,19.000 ZM7.000,18.000 L7.000,19.000 L6.000,19.000 L6.000,18.000 L7.000,18.000 ZM8.000,17.000 L8.000,18.000 L7.000,18.000 L7.000,17.000 L8.000,17.000 ZM9.000,16.000 L9.000,17.000 L8.000,17.000 L8.000,16.000 L9.000,16.000 ZM10.000,15.000 L10.000,16.000 L9.000,16.000 L9.000,15.000 L10.000,15.000 ZM11.000,14.000 L11.000,15.000 L10.000,15.000 L10.000,14.000 L11.000,14.000 ZM12.000,13.000 L12.000,14.000 L11.000,14.000 L11.000,13.000 L12.000,13.000 ZM13.000,12.000 L13.000,13.000 L12.000,13.000 L12.000,12.000 L13.000,12.000 ZM14.000,11.000 L14.000,12.000 L13.000,12.000 L13.000,11.000 L14.000,11.000 ZM15.000,10.000 L15.000,11.000 L14.000,11.000 L14.000,10.000 L15.000,10.000 ZM16.000,9.000 L16.000,10.000 L15.000,10.000 L15.000,9.000 L16.000,9.000 ZM17.000,8.000 L17.000,9.000 L16.000,9.000 L16.000,8.000 L17.000,8.000 ZM18.000,7.000 L18.000,8.000 L17.000,8.000 L17.000,7.000 L18.000,7.000 ZM19.000,6.000 L19.000,7.000 L18.000,7.000 L18.000,6.000 L19.000,6.000 ZM20.000,5.000 L20.000,6.000 L19.000,6.000 L19.000,5.000 L20.000,5.000 ZM21.000,4.000 L21.000,5.000 L20.000,5.000 L20.000,4.000 L21.000,4.000 ZM22.000,3.000 L22.000,4.000 L21.000,4.000 L21.000,3.000 L22.000,3.000 ZM23.000,2.000 L23.000,3.000 L22.000,3.000 L22.000,2.000 L23.000,2.000 ZM24.000,1.000 L24.000,2.000 L23.000,2.000 L23.000,1.000 L24.000,1.000 ZM25.000,-0.000 L25.000,1.000 L24.000,1.000 L24.000,-0.000 L25.000,-0.000 Z" class="cls-1"/>
</svg>
