<svg xmlns="http://www.w3.org/2000/svg" xmlns:xlink="http://www.w3.org/1999/xlink" preserveAspectRatio="xMidYMid" width="192" height="192" viewBox="0 0 192 192">
  <defs>
    <style>

      .cls-2 {
        fill: #cfd8dc;
      }
    </style>
  </defs>
  <path d="M-0.000,192.000 C-0.000,192.000 -0.000,-0.000 -0.000,-0.000 C-0.000,-0.000 192.000,-0.000 192.000,-0.000 C192.000,-0.000 192.000,192.000 192.000,192.000 C192.000,192.000 -0.000,192.000 -0.000,192.000 ZM135.000,81.503 C135.000,77.514 132.015,74.000 128.000,74.000 C128.000,74.000 114.000,74.000 114.000,74.000 C114.000,74.000 107.450,66.000 107.450,66.000 C107.450,66.000 85.550,66.000 85.550,66.000 C85.550,66.000 79.000,74.000 79.000,74.000 C79.000,74.000 65.000,74.000 65.000,74.000 C60.985,74.000 58.000,77.514 58.000,81.503 C58.000,81.503 58.000,119.667 58.000,119.667 C58.000,123.700 61.285,127.000 65.300,127.000 C65.300,127.000 127.700,127.000 127.700,127.000 C131.715,127.000 135.000,123.700 135.000,119.667 C135.000,119.667 135.000,81.503 135.000,81.503 ZM96.500,119.000 C86.140,119.000 78.000,110.858 78.000,100.495 C78.000,90.132 86.140,81.989 96.500,81.989 C106.860,81.989 115.000,90.132 115.000,100.495 C115.000,110.858 106.860,119.000 96.500,119.000 ZM96.500,88.996 C90.153,88.996 85.007,94.144 85.007,100.495 C85.007,106.845 90.153,111.994 96.500,111.994 C102.847,111.994 107.993,106.845 107.993,100.495 C107.993,94.144 102.847,88.996 96.500,88.996 Z" id="path-1" class="cls-2" fill-rule="evenodd"/>
</svg>
