<svg version="1.1" id="Layer_1" xmlns="http://www.w3.org/2000/svg" xmlns:xlink="http://www.w3.org/1999/xlink" x="0px" y="0px"
	 viewBox="0 0 96 24" style="enable-background:new 0 0 96 24;" xml:space="preserve">
<g fill="#8F8F8F">
	<text style="font-family:'ArialMT',Arial,Helvetica,sans-serif;font-size:11px;" transform="matrix(1 0 0 1 28.3333 14.7654)">megagroup.ru</text>
	<path d="M6.6,9.2h-5l-0.2,1h5L6.6,9.2z M7,7.5V7.2H2l-0.2,1h5.1L7,7.5z M6.1,11.2h-5l-0.2,1h5L6.1,11.2z M5.6,13.2H0.7l-0.4,1.6h4.9L5.6,13.2z M16.2,2.8L6.5,0.3C5-0.2,3.4,0.4,3.1,2L2.2,6.1l8.1,0c0.9,0,2.2,0,2.4,1.6l0.6,5.5c0,0.2,0,0.5,0.2,0.5c0.2,0,0.3-0.3,0.4-0.5l2.6-5.2c0.5-0.9,1.1-1.3,1.8-1.5l0-0.2C18.7,4.8,17.7,3.2,16.2,2.8z M12.9,17.2c-1.5,0-1.6-0.7-1.7-1.4l-0.6-5.1c0-0.2,0-0.4-0.1-0.4c-0.1,0-0.2,0.2-0.2,0.4l-1.3,6.6h-2v0h-7l0,0.1c-0.3,1.6,0.7,3.1,2.2,3.5l9.7,2.6c1.5,0.4,3-0.5,3.4-2.1l2-9.5l-2.1,4C14.8,16.6,14.4,17.2,12.9,17.2z"/>
</g>
</svg>